<svg width="1180" height="610" viewBox="0 0 1180 610" fill="none" xmlns="http://www.w3.org/2000/svg">
  <defs>
    <linearGradient id="bg-glow-1" x1="0%" y1="0%" x2="100%" y2="100%">
      <stop offset="0%" stop-color="#7C3AED" stop-opacity="0.15" />
      <stop offset="100%" stop-color="#22D3EE" stop-opacity="0.05" />
    </linearGradient>
    <linearGradient id="bg-glow-2" x1="100%" y1="100%" x2="0%" y2="0%">
      <stop offset="0%" stop-color="#10B981" stop-opacity="0.15" />
      <stop offset="100%" stop-color="#22D3EE" stop-opacity="0.05" />
    </linearGradient>
    
    <linearGradient id="accent-grad" x1="0%" y1="0%" x2="100%" y2="100%">
      <stop offset="0%" stop-color="#7C3AED" />
      <stop offset="50%" stop-color="#22D3EE" />
      <stop offset="100%" stop-color="#10B981" />
      <animate attributeName="x1" values="0%;100%;0%" dur="10s" repeatCount="indefinite" />
      <animate attributeName="x2" values="100%;0%;100%" dur="10s" repeatCount="indefinite" />
    </linearGradient>

    <linearGradient id="ascii-grad" x1="0%" y1="0%" x2="0%" y2="100%">
      <stop offset="0%" stop-color="#22D3EE" />
      <stop offset="100%" stop-color="#7C3AED" />
      <animate attributeName="y1" values="0%;-100%;0%" dur="8s" repeatCount="indefinite" />
      <animate attributeName="y2" values="100%;200%;100%" dur="8s" repeatCount="indefinite" />
    </linearGradient>

    <linearGradient id="shimmer" x1="-100%" y1="-100%" x2="0%" y2="0%">
      <stop offset="0%" stop-color="rgba(255,255,255,0.02)"/>
      <stop offset="50%" stop-color="rgba(255,255,255,0.15)"/>
      <stop offset="100%" stop-color="rgba(255,255,255,0.02)"/>
      <animate attributeName="x1" values="-100%;200%" dur="4s" repeatCount="indefinite"/>
      <animate attributeName="x2" values="0%;300%" dur="4s" repeatCount="indefinite"/>
      <animate attributeName="y1" values="-100%;200%" dur="4s" repeatCount="indefinite"/>
      <animate attributeName="y2" values="0%;300%" dur="4s" repeatCount="indefinite"/>
    </linearGradient>

    <filter id="noise" x="0" y="0" width="100%" height="100%">
      <feTurbulence type="fractalNoise" baseFrequency="0.8" numOctaves="3" stitchTiles="stitch" />
      <feColorMatrix type="matrix" values="1 0 0 0 0, 0 1 0 0 0, 0 0 1 0 0, 0 0 0 0.04 0" />
    </filter>

    <clipPath id="type-clip1">
      <rect x="0" y="-20" width="0" height="30">
        <animate attributeName="width" values="0; 260; 260; 0; 0; 0; 0; 0; 0; 0" keyTimes="0; 0.05; 0.28; 0.33; 0.38; 0.61; 0.66; 0.71; 0.95; 1" dur="12s" repeatCount="indefinite" />
      </rect>
    </clipPath>
    <clipPath id="type-clip2">
      <rect x="0" y="-20" width="0" height="30">
        <animate attributeName="width" values="0; 0; 0; 0; 210; 210; 0; 0; 0; 0" keyTimes="0; 0.05; 0.28; 0.33; 0.38; 0.61; 0.66; 0.71; 0.95; 1" dur="12s" repeatCount="indefinite" />
      </rect>
    </clipPath>
    <clipPath id="type-clip3">
      <rect x="0" y="-20" width="0" height="30">
        <animate attributeName="width" values="0; 0; 0; 0; 0; 0; 0; 200; 200; 0" keyTimes="0; 0.05; 0.28; 0.33; 0.38; 0.61; 0.66; 0.71; 0.95; 1" dur="12s" repeatCount="indefinite" />
      </rect>
    </clipPath>

    <clipPath id="ascii-reveal">
      <rect x="0" y="0" width="450" height="0">
        <animate attributeName="height" values="0;500" dur="2s" fill="freeze" />
      </rect>
    </clipPath>

    <!-- Name Typing Clip Path (Expanded for full name) -->
    <clipPath id="name-clip">
      <rect x="40" y="85" width="0" height="70">
        <animate attributeName="width" 
                 values="0; 115; 115; 0; 0; 480; 480; 0" 
                 keyTimes="0; 0.15; 0.30; 0.40; 0.50; 0.85; 0.95; 1" 
                 dur="8s" repeatCount="indefinite" />
      </rect>
    </clipPath>

    <radialGradient id="particle-grad" cx="50%" cy="50%" r="50%">
      <stop offset="0%" stop-color="#22D3EE" stop-opacity="0.8" />
      <stop offset="100%" stop-color="#22D3EE" stop-opacity="0" />
    </radialGradient>
  </defs>

  <!-- Background Base -->
  <rect width="1180" height="610" fill="#030712" rx="24" />
  
  <circle cx="200" cy="150" r="300" fill="url(#bg-glow-1)">
    <animate attributeName="cy" values="150;200;150" dur="15s" repeatCount="indefinite" />
  </circle>
  <circle cx="980" cy="450" r="350" fill="url(#bg-glow-2)">
    <animate attributeName="cx" values="980;930;980" dur="18s" repeatCount="indefinite" />
  </circle>
  
  <rect width="1180" height="610" rx="24" style="pointer-events:none;" filter="url(#noise)" />

  <g opacity="0.6">
    <circle cx="100" cy="100" r="2" fill="url(#particle-grad)">
      <animate attributeName="cy" values="100;50" dur="6s" repeatCount="indefinite"/>
      <animate attributeName="opacity" values="0;0.8;0" dur="6s" repeatCount="indefinite"/>
    </circle>
    <circle cx="1050" cy="500" r="3" fill="url(#particle-grad)">
      <animate attributeName="cy" values="500;430" dur="8s" repeatCount="indefinite"/>
      <animate attributeName="opacity" values="0;0.6;0" dur="8s" repeatCount="indefinite"/>
    </circle>
    <circle cx="600" cy="200" r="1.5" fill="url(#particle-grad)">
      <animate attributeName="cy" values="200;150" dur="5s" repeatCount="indefinite"/>
      <animate attributeName="opacity" values="0;1;0" dur="5s" repeatCount="indefinite"/>
    </circle>
  </g>

  <!-- ==================== LEFT PANEL (Arch Linux Terminal) ==================== -->
  <g transform="translate(40, 40)">
    <rect width="415" height="530" rx="16" fill="#0F172A" fill-opacity="0.7" stroke="url(#shimmer)" stroke-width="1.5" />
    <rect width="415" height="530" rx="16" fill="transparent" stroke="rgba(255,255,255,0.08)" stroke-width="1" />
    
    <g clip-path="url(#ascii-reveal)">
      <animateTransform attributeName="transform" type="translate" values="0,0; 0,-5; 0,0" dur="6s" repeatCount="indefinite" />
      
      <text x="20" y="50" font-family="'Courier New', monospace" font-size="12" fill="url(#ascii-grad)" font-weight="bold">
        &lt;tspan x="30" dy="20"&gt;       /\       &lt;/tspan&gt;&lt;tspan&gt;OS: Arch Linux x86_64&lt;/tspan&gt;
        &lt;tspan x="30" dy="20"&gt;      /  \      &lt;/tspan&gt;&lt;tspan&gt;Host: realmheart&lt;/tspan&gt;
        &lt;tspan x="30" dy="20"&gt;     /    \     &lt;/tspan&gt;&lt;tspan&gt;Kernel: ajaira-0.1&lt;/tspan&gt;
        &lt;tspan x="30" dy="20"&gt;    /      \    &lt;/tspan&gt;&lt;tspan&gt;Uptime: 0 min 54s&lt;/tspan&gt;
        &lt;tspan x="30" dy="20"&gt;   /        \   &lt;/tspan&gt;&lt;tspan&gt;Shell: fish&lt;/tspan&gt;
        &lt;tspan x="30" dy="20"&gt;  /__________\  &lt;/tspan&gt;&lt;tspan&gt;WM: github&lt;/tspan&gt;
        &lt;tspan x="30" dy="20"&gt; / __________ \ &lt;/tspan&gt;&lt;tspan&gt;Terminal: github readme&lt;/tspan&gt;
        &lt;tspan x="30" dy="20"&gt;/ /          \ \&lt;/tspan&gt;
        &lt;tspan x="30" dy="20"&gt;/_/            \_\&lt;/tspan&gt;
        
        &lt;tspan x="20" dy="36"&gt;[root@nayx ~]# sudo systemctl start nayxctl&lt;/tspan&gt;
        &lt;tspan x="20" dy="20"&gt;[INFO] Initializing NayX Core...&lt;/tspan&gt;
        &lt;tspan x="20" dy="20"&gt;[OK] Profile modules loaded.&lt;/tspan&gt;
        &lt;tspan x="20" dy="20"&gt;[OK] Skill matrix synced.&lt;/tspan&gt;
        &lt;tspan x="20" dy="20"&gt;Status: ACTIVE_&lt;/tspan&gt;
      </text>
      
      <!-- Blinking Cursor -->
      <rect x="85" y="332" width="8" height="14" fill="#22D3EE">
        <animate attributeName="opacity" values="1;0;1" dur="0.8s" repeatCount="indefinite" />
      </rect>
    </g>

    <line x1="0" y1="0" x2="415" y2="0" stroke="rgba(34, 211, 238, 0.15)" stroke-width="3">
      <animate attributeName="y1" values="0;530" dur="4s" repeatCount="indefinite" />
      <animate attributeName="y2" values="0;530" dur="4s" repeatCount="indefinite" />
    </line>
  </g>

  <!-- ==================== RIGHT PANEL ==================== -->
  <g transform="translate(485, 40)">
    <rect width="655" height="530" rx="16" fill="#0F172A" fill-opacity="0.85" stroke="url(#shimmer)" stroke-width="1.5" />
    <rect width="655" height="530" rx="16" fill="transparent" stroke="rgba(255,255,255,0.08)" stroke-width="1" />

    <circle cx="30" cy="30" r="6" fill="#EF4444" opacity="0.8" />
    <circle cx="50" cy="30" r="6" fill="#EAB308" opacity="0.8" />
    <circle cx="70" cy="30" r="6" fill="#22C55E" opacity="0.8" />

    <g font-family="system-ui, -apple-system, sans-serif">
      
      <text x="40" y="80" font-size="28" font-weight="600" fill="#F8FAFC">Hi,</text>
      
      <!-- Name Typing Animation -->
      <g clip-path="url(#name-clip)">
        <text x="40" y="125" font-size="44" font-weight="800" fill="#F8FAFC">NayX
          &lt;animate attributeName="opacity" values="1; 1; 0; 0; 1" keyTimes="0; 0.40; 0.41; 0.99; 1" dur="8s" repeatCount="indefinite" /&gt;
        </text>
        <text x="40" y="125" font-size="44" font-weight="800" fill="#F8FAFC">Naimul Hasan Nayeem
          &lt;animate attributeName="opacity" values="0; 0; 1; 1; 0" keyTimes="0; 0.40; 0.41; 0.99; 1" dur="8s" repeatCount="indefinite" /&gt;
        </text>
      </g>
      <rect x="40" y="92" width="8" height="38" fill="#22D3EE">
        <animate attributeName="x" 
                 values="40; 155; 155; 40; 40; 520; 520; 40" 
                 keyTimes="0; 0.15; 0.30; 0.40; 0.50; 0.85; 0.95; 1" 
                 dur="8s" repeatCount="indefinite" />
        <animate attributeName="opacity" values="1;0;1" dur="0.8s" repeatCount="indefinite" />
      </rect>

      <!-- Animated Typing Roles -->
      <g transform="translate(40, 165)" font-size="22" font-weight="600" fill="url(#accent-grad)" font-family="'Fira Code', 'Courier New', monospace">
        <g>
          <animate attributeName="opacity" values="1; 1; 1; 0; 0; 0; 0; 0; 0; 0" keyTimes="0; 0.05; 0.28; 0.33; 0.38; 0.61; 0.66; 0.71; 0.95; 1" dur="12s" repeatCount="indefinite" />
          <text clip-path="url(#type-clip1)">Java &amp; C++ Developer</text>
        </g>
        <g opacity="0">
          <animate attributeName="opacity" values="0; 0; 0; 1; 1; 1; 0; 0; 0; 0" keyTimes="0; 0.05; 0.28; 0.33; 0.38; 0.61; 0.66; 0.71; 0.95; 1" dur="12s" repeatCount="indefinite" />
          <text clip-path="url(#type-clip2)">Linux Enthusiast</text>
        </g>
        <g opacity="0">
          <animate attributeName="opacity" values="0; 0; 0; 0; 0; 0; 1; 1; 1; 0" keyTimes="0; 0.05; 0.28; 0.33; 0.38; 0.61; 0.66; 0.71; 0.95; 1" dur="12s" repeatCount="indefinite" />
          <text clip-path="url(#type-clip3)">Tech Enthusiast</text>
        </g>
        <rect x="0" y="-18" width="10" height="24" fill="#22D3EE">
          <animate attributeName="x" values="0; 260; 260; 0; 210; 210; 0; 200; 200; 0" keyTimes="0; 0.05; 0.28; 0.33; 0.38; 0.61; 0.66; 0.71; 0.95; 1" dur="12s" repeatCount="indefinite" />
          <animate attributeName="opacity" values="1;0;1" dur="0.8s" repeatCount="indefinite" />
        </rect>
      </g>

      <!-- Sequential Reveal Info Section -->
      <g font-size="15" fill="#94A3B8" font-weight="500">
        <g opacity="0" transform="translate(40, 210)">
          <animate attributeName="opacity" values="0;1" begin="0.5s" dur="0.8s" fill="freeze" />
          <text fill="#F8FAFC" font-weight="600">Location:</text>
          <text x="135">Dhaka, Bangladesh</text>
        </g>
        
        <g opacity="0" transform="translate(40, 245)">
          <animate attributeName="opacity" values="0;1" begin="1.0s" dur="0.8s" fill="freeze" />
          <text fill="#F8FAFC" font-weight="600">Education:</text>
          <text x="135">BSc CSE @ AIUB</text>
        </g>

        <g opacity="0" transform="translate(40, 280)">
          <animate attributeName="opacity" values="0;1" begin="1.5s" dur="0.8s" fill="freeze" />
          <text fill="#F8FAFC" font-weight="600">Email:</text>
          <text x="135" fill="#22D3EE">official.nhnayeem@gmail.com</text>
        </g>

        <g opacity="0" transform="translate(40, 315)">
          <animate attributeName="opacity" values="0;1" begin="2.0s" dur="0.8s" fill="freeze" />
          <text fill="#F8FAFC" font-weight="600">Website:</text>
          <text x="135" fill="#22D3EE">nayx.framer.website</text>
        </g>
      </g>

      <!-- Skills -->
      <g opacity="0" transform="translate(40, 365)">
        <animate attributeName="opacity" values="0;1" begin="2.5s" dur="0.8s" fill="freeze" />
        <text font-size="14" font-weight="700" fill="#F8FAFC" letter-spacing="1">TECH STACK</text>
      </g>

      <!-- Glowing Pills (1 Row Layout) -->
      <g opacity="0" transform="translate(40, 385)">
        <animate attributeName="opacity" values="0;1" begin="3.0s" dur="1s" fill="freeze" />
        
        <g transform="translate(0, 0)">
          <rect width="65" height="32" rx="16" fill="rgba(255,255,255,0.04)" stroke="rgba(255,255,255,0.12)">
            <animate attributeName="stroke-opacity" values="0.12; 0.5; 0.12" dur="3s" repeatCount="indefinite"/>
          </rect>
          <text x="32.5" y="21" text-anchor="middle" fill="#E2E8F0" font-size="13" font-weight="500">Java</text>
        </g>
        <g transform="translate(75, 0)">
          <rect width="60" height="32" rx="16" fill="rgba(255,255,255,0.04)" stroke="rgba(255,255,255,0.12)">
            <animate attributeName="stroke-opacity" values="0.12; 0.5; 0.12" dur="3s" begin="0.2s" repeatCount="indefinite"/>
          </rect>
          <text x="30" y="21" text-anchor="middle" fill="#E2E8F0" font-size="13" font-weight="500">C++</text>
        </g>
        <g transform="translate(145, 0)">
          <rect width="75" height="32" rx="16" fill="rgba(255,255,255,0.04)" stroke="rgba(255,255,255,0.12)">
            <animate attributeName="stroke-opacity" values="0.12; 0.5; 0.12" dur="3s" begin="0.4s" repeatCount="indefinite"/>
          </rect>
          <text x="37.5" y="21" text-anchor="middle" fill="#E2E8F0" font-size="13" font-weight="500">Python</text>
        </g>
        <g transform="translate(230, 0)">
          <rect width="90" height="32" rx="16" fill="rgba(255,255,255,0.04)" stroke="rgba(255,255,255,0.12)">
            <animate attributeName="stroke-opacity" values="0.12; 0.5; 0.12" dur="3s" begin="0.6s" repeatCount="indefinite"/>
          </rect>
          <text x="45" y="21" text-anchor="middle" fill="#E2E8F0" font-size="13" font-weight="500">ArchLinux</text>
        </g>
        <g transform="translate(330, 0)">
          <rect width="90" height="32" rx="16" fill="rgba(255,255,255,0.04)" stroke="rgba(255,255,255,0.12)">
            <animate attributeName="stroke-opacity" values="0.12; 0.5; 0.12" dur="3s" begin="0.8s" repeatCount="indefinite"/>
          </rect>
          <text x="45" y="21" text-anchor="middle" fill="#E2E8F0" font-size="13" font-weight="500">Hyprland</text>
        </g>
        <g transform="translate(430, 0)">
          <rect width="65" height="32" rx="16" fill="rgba(255,255,255,0.04)" stroke="rgba(255,255,255,0.12)">
            <animate attributeName="stroke-opacity" values="0.12; 0.5; 0.12" dur="3s" begin="1.0s" repeatCount="indefinite"/>
          </rect>
          <text x="32.5" y="21" text-anchor="middle" fill="#E2E8F0" font-size="13" font-weight="500">Figma</text>
        </g>
      </g>
      
      <line x1="40" y1="450" x2="615" y2="450" stroke="rgba(255,255,255,0.08)" stroke-width="1" />

      <!-- Social Icons -->
      <g opacity="0" transform="translate(40, 462)" fill="#94A3B8">
        <animate attributeName="opacity" values="0;1" begin="3.5s" dur="1s" fill="freeze" />
        
        <!-- GitHub -->
        <g transform="translate(0, 0)">
          <path d="M12 2C6.477 2 2 6.477 2 12c0 4.42 2.865 8.166 6.839 9.489.5.092.682-.217.682-.482 0-.237-.008-.866-.013-1.699-2.782.604-3.369-1.34-3.369-1.34-.454-1.156-1.11-1.463-1.11-1.463-.908-.62.069-.608.069-.608 1.003.07 1.531 1.03 1.531 1.03.892 1.529 2.341 1.087 2.91.831.092-.646.35-1.086.636-1.336-2.22-.253-4.555-1.11-4.555-4.943 0-1.091.39-1.984 1.029-2.683-.103-.253-.446-1.27.098-2.647 0 0 .84-.269 2.75 1.025A9.578 9.578 0 0112 6.836c.85.004 1.705.114 2.504.336 1.909-1.294 2.747-1.025 2.747-1.025.546 1.377.203 2.394.1 2.647.64.699 1.028 1.592 1.028 2.683 0 3.842-2.339 4.687-4.566 4.935.359.309.678.919.678 1.852 0 1.336-.012 2.415-.012 2.743 0 .267.18.578.688.48C19.138 20.164 22 16.418 22 12c0-5.523-4.477-10-10-10z"/>
        </g>
        <!-- LinkedIn -->
        <g transform="translate(35, 0)">
          <path d="M20.447 20.452h-3.554v-5.569c0-1.328-.027-3.037-1.852-3.037-1.853 0-2.136 1.445-2.136 2.939v5.667H9.351V9h3.414v1.561h.046c.477-.9 1.637-1.85 3.37-1.85 3.601 0 4.267 2.37 4.267 5.455v6.286zM5.337 7.433a2.062 2.062 0 01-2.063-2.065 2.064 2.064 0 112.063 2.065zM7.119 20.452H3.554V9h3.565v11.452zM22.225 0H1.771C.792 0 0 .774 0 1.729v20.542C0 23.227.792 24 1.771 24h20.451C23.2 24 24 23.227 24 22.271V1.729C24 .774 23.2 0 22.222 0h.003z"/>
        </g>
        <!-- Discord -->
        <a href="https://discord.gg/NNwB4SVacN" target="_blank">
          <g transform="translate(70, 0)">
            <path d="M20.317 4.3698a19.7913 19.7913 0 00-4.8851-1.5152.0741.0741 0 00-.0785.0371c-.211.3753-.4447.8648-.6083 1.2495-1.8447-.2762-3.68-.2762-5.4868 0-.1636-.3933-.4058-.8742-.6177-1.2495a.077.077 0 00-.0785-.037 19.7363 19.7363 0 00-4.8852 1.515.0699.0699 0 00-.0321.0277C.5334 9.0458-.319 13.5799.0992 18.0578a.0824.0824 0 00.0312.0561c2.0528 1.5076 4.0413 2.4228 5.9929 3.0294a.0777.0777 0 00.0842-.0276c.4616-.6304.8731-1.2952 1.226-1.9942a.076.076 0 00-.0416-.1057c-.6528-.2476-1.2743-.5495-1.8722-.8923a.077.077 0 01-.0076-.1277c.1258-.0943.2517-.1923.3718-.2914a.0743.0743 0 01.0776-.0105c3.9278 1.7933 8.18 1.7933 12.0614 0a.0739.0739 0 01.0785.0095c.1202.099.246.1981.3728.2924a.077.077 0 01-.0066.1276 12.2986 12.2986 0 01-1.873.8914.0766.0766 0 00-.0407.1067c.3604.698.7719 1.3628 1.225 1.9932a.076.076 0 00.0842.0286c1.961-.6067 3.9495-1.5219 6.0023-3.0294a.077.077 0 00.0313-.0552c.5004-5.177-.8382-9.6739-3.5485-13.6604a.061.061 0 00-.0312-.0286zM8.02 15.3312c-1.1825 0-2.1569-1.0857-2.1569-2.419 0-1.3332.9555-2.4189 2.157-2.4189 1.2108 0 2.1757 1.0952 2.1568 2.419 0 1.3332-.9555 2.4189-2.1569 2.4189zm7.9748 0c-1.1825 0-2.1569-1.0857-2.1569-2.419 0-1.3332.9554-2.4189 2.1569-2.4189 1.2108 0 2.1757 1.0952 2.1568 2.419 0 1.3332-.946 2.4189-2.1568 2.4189Z"/>
          </g>
        </a>
      </g>
    </g>
  </g>
</svg>